<svg id="svg" version="1.1" xmlns="http://www.w3.org/2000/svg" xmlns:xlink="http://www.w3.org/1999/xlink" width="400" height="199.2537313432836" viewBox="0, 0, 400,199.2537313432836"><g id="svgg"><path id="path0" d="M248.707 0.119 C 248.958 0.157,249.276 0.350,249.415 0.548 C 249.594 0.804,249.667 0.834,249.667 0.654 C 249.667 0.248,249.306 -0.002,248.758 0.025 C 248.258 0.050,248.257 0.051,248.707 0.119 M244.042 0.282 C 244.202 0.323,244.465 0.323,244.625 0.282 C 244.785 0.240,244.654 0.205,244.333 0.205 C 244.012 0.205,243.881 0.240,244.042 0.282 M391.500 0.416 C 386.695 0.709,382.641 1.253,377.667 2.270 C 376.503 2.508,375.876 2.656,373.500 3.257 C 372.996 3.385,372.068 3.610,371.438 3.757 C 370.808 3.905,370.133 4.087,369.938 4.162 C 369.743 4.237,369.133 4.428,368.583 4.587 C 368.033 4.746,367.396 4.951,367.167 5.043 C 366.938 5.135,366.525 5.270,366.250 5.343 C 365.649 5.503,362.889 6.498,361.644 7.005 C 361.152 7.204,360.600 7.428,360.417 7.502 C 359.972 7.681,358.540 8.299,357.917 8.579 C 357.642 8.703,356.967 9.005,356.417 9.250 C 355.867 9.495,355.042 9.888,354.583 10.123 C 348.808 13.084,347.947 13.546,347.500 13.919 C 347.363 14.033,347.081 14.179,346.875 14.242 C 346.669 14.304,346.500 14.414,346.500 14.484 C 346.500 14.555,346.201 14.756,345.835 14.932 C 345.470 15.107,345.170 15.297,345.169 15.355 C 345.168 15.412,344.942 15.553,344.667 15.667 C 344.392 15.781,344.167 15.940,344.167 16.020 C 344.167 16.101,344.089 16.167,343.993 16.167 C 343.796 16.167,342.779 16.852,342.694 17.042 C 342.664 17.110,342.562 17.167,342.468 17.167 C 342.375 17.167,342.014 17.392,341.667 17.667 C 341.319 17.942,340.952 18.167,340.851 18.167 C 340.750 18.167,340.667 18.224,340.667 18.294 C 340.667 18.364,340.085 18.806,339.375 19.276 C 338.665 19.747,337.873 20.327,337.616 20.566 C 337.360 20.805,337.078 21.000,336.991 21.000 C 336.904 21.000,336.833 21.062,336.833 21.138 C 336.833 21.214,336.383 21.602,335.833 22.000 C 335.283 22.398,334.833 22.786,334.833 22.862 C 334.833 22.938,334.727 23.000,334.597 23.000 C 334.467 23.000,334.336 23.065,334.306 23.144 C 334.258 23.266,333.128 24.273,331.095 26.002 C 330.391 26.601,324.500 32.492,324.500 32.597 C 324.500 32.646,324.289 32.887,324.031 33.134 C 323.773 33.381,323.192 34.031,322.739 34.579 C 322.287 35.126,321.757 35.727,321.561 35.913 C 321.365 36.100,320.737 36.884,320.164 37.657 C 319.591 38.429,318.977 39.216,318.799 39.405 C 318.620 39.595,318.351 39.956,318.201 40.208 C 318.051 40.460,317.869 40.667,317.797 40.667 C 317.725 40.667,317.667 40.745,317.667 40.840 C 317.667 40.936,317.590 41.105,317.497 41.215 C 316.891 41.935,315.667 43.681,315.667 43.826 C 315.667 43.922,315.590 44.000,315.496 44.000 C 315.402 44.000,315.252 44.169,315.163 44.375 C 314.996 44.761,314.647 45.353,314.500 45.500 C 314.346 45.654,313.729 46.581,313.612 46.833 C 313.548 46.971,313.352 47.308,313.175 47.583 C 312.998 47.858,312.578 48.571,312.241 49.167 C 311.905 49.762,311.581 50.288,311.523 50.333 C 311.464 50.379,311.154 50.942,310.833 51.583 C 310.512 52.225,310.205 52.788,310.150 52.833 C 309.126 53.684,303.315 67.858,302.497 71.500 C 302.425 71.821,302.290 72.308,302.197 72.583 C 301.693 74.078,300.831 77.613,300.267 80.500 C 299.055 86.703,298.534 91.629,298.418 98.000 C 298.312 103.871,297.950 107.584,297.240 110.098 C 297.108 110.564,297.000 111.089,297.001 111.265 C 297.001 111.440,296.890 111.921,296.754 112.333 C 296.618 112.746,296.311 113.758,296.072 114.583 C 295.833 115.408,295.531 116.330,295.402 116.631 C 295.273 116.932,295.167 117.250,295.167 117.339 C 295.167 117.666,292.638 122.916,291.838 124.250 C 291.563 124.708,291.284 125.196,291.219 125.333 C 291.154 125.471,290.722 126.133,290.259 126.804 C 289.796 127.475,289.342 128.150,289.250 128.304 C 289.158 128.458,289.043 128.621,288.995 128.667 C 288.946 128.712,288.610 129.162,288.248 129.667 C 287.886 130.171,287.514 130.666,287.420 130.767 C 287.327 130.868,286.914 131.355,286.503 131.850 C 285.418 133.158,282.086 136.456,280.876 137.420 C 280.303 137.877,279.834 138.306,279.834 138.375 C 279.834 138.444,279.762 138.500,279.675 138.500 C 279.588 138.500,279.307 138.695,279.050 138.933 C 278.793 139.172,278.115 139.675,277.542 140.052 C 276.969 140.429,276.500 140.796,276.500 140.869 C 276.500 140.941,276.429 141.000,276.343 141.000 C 276.257 141.000,275.525 141.401,274.718 141.891 C 273.422 142.678,272.178 143.385,270.833 144.098 C 270.309 144.376,268.805 145.039,267.454 145.587 C 266.884 145.819,266.286 146.081,266.127 146.171 C 265.968 146.260,265.727 146.333,265.591 146.333 C 265.456 146.333,265.098 146.437,264.797 146.564 C 264.265 146.787,263.560 147.012,261.667 147.558 C 258.662 148.426,254.409 149.109,250.917 149.286 L 249.083 149.379 249.126 174.296 L 249.169 199.213 252.376 199.119 C 259.577 198.907,267.062 197.805,274.083 195.921 C 274.542 195.798,275.329 195.607,275.833 195.496 C 276.337 195.385,277.012 195.202,277.333 195.088 C 277.654 194.975,278.667 194.639,279.583 194.342 C 281.893 193.593,283.989 192.862,284.583 192.598 C 284.858 192.475,285.421 192.246,285.833 192.089 C 286.812 191.715,287.931 191.232,289.917 190.327 C 291.759 189.487,295.986 187.373,297.083 186.743 C 297.633 186.427,298.233 186.094,298.417 186.001 C 298.600 185.909,298.897 185.740,299.077 185.625 C 299.257 185.511,299.707 185.231,300.077 185.003 C 300.447 184.776,300.900 184.498,301.083 184.385 C 301.267 184.272,301.529 184.126,301.667 184.059 C 301.925 183.935,302.853 183.314,303.000 183.167 C 303.046 183.121,303.340 182.940,303.654 182.765 C 303.968 182.590,304.343 182.349,304.488 182.230 C 304.632 182.111,305.275 181.640,305.917 181.182 C 306.558 180.724,307.174 180.271,307.285 180.175 C 307.395 180.079,307.564 180.000,307.660 180.000 C 307.755 180.000,307.833 179.925,307.833 179.833 C 307.833 179.742,307.946 179.667,308.083 179.667 C 308.221 179.667,308.333 179.608,308.333 179.536 C 308.333 179.464,308.540 179.282,308.792 179.132 C 309.044 178.982,309.400 178.720,309.583 178.550 C 309.767 178.380,310.404 177.876,311.000 177.428 C 311.596 176.981,312.158 176.532,312.250 176.430 C 312.342 176.328,313.017 175.728,313.750 175.096 C 314.483 174.463,315.108 173.883,315.139 173.806 C 315.169 173.730,315.258 173.667,315.335 173.667 C 315.487 173.667,316.696 172.536,319.167 170.082 C 320.991 168.270,322.412 166.742,324.500 164.344 C 325.004 163.765,325.508 163.197,325.619 163.081 C 325.730 162.965,326.214 162.355,326.694 161.727 C 327.174 161.098,327.646 160.503,327.742 160.405 C 327.838 160.306,328.104 159.951,328.333 159.614 C 328.563 159.278,328.806 159.002,328.875 159.001 C 328.944 159.001,329.000 158.887,329.000 158.750 C 329.000 158.612,329.075 158.500,329.167 158.500 C 329.258 158.500,329.333 158.421,329.333 158.323 C 329.333 158.226,329.783 157.556,330.333 156.833 C 330.883 156.111,331.333 155.447,331.333 155.357 C 331.333 155.268,331.390 155.169,331.458 155.139 C 331.648 155.055,332.333 154.037,332.333 153.840 C 332.333 153.745,332.399 153.667,332.480 153.667 C 332.560 153.667,332.719 153.442,332.833 153.167 C 332.947 152.892,333.106 152.667,333.187 152.667 C 333.267 152.667,333.333 152.584,333.333 152.483 C 333.333 152.381,333.543 151.987,333.800 151.608 C 334.056 151.228,334.319 150.804,334.385 150.667 C 334.450 150.529,334.652 150.192,334.833 149.917 C 335.014 149.642,335.237 149.267,335.329 149.083 C 335.421 148.900,335.756 148.300,336.073 147.750 C 336.391 147.200,336.850 146.337,337.095 145.833 C 337.339 145.329,338.130 143.703,338.853 142.220 C 339.575 140.737,340.167 139.470,340.167 139.403 C 340.167 139.337,340.392 138.806,340.667 138.224 C 340.942 137.642,341.167 137.068,341.167 136.950 C 341.167 136.831,341.227 136.662,341.300 136.575 C 341.373 136.488,341.604 135.967,341.812 135.417 C 342.020 134.867,342.297 134.170,342.428 133.869 C 342.559 133.568,342.667 133.218,342.667 133.091 C 342.667 132.964,342.771 132.648,342.898 132.389 C 343.149 131.878,343.396 131.177,343.743 130.000 C 343.864 129.587,344.076 128.875,344.213 128.417 C 344.453 127.618,344.758 126.550,345.262 124.750 C 345.391 124.292,345.613 123.317,345.755 122.583 C 345.898 121.850,346.099 120.950,346.202 120.583 C 346.304 120.217,346.442 119.579,346.508 119.167 C 346.574 118.754,346.708 118.004,346.804 117.500 C 347.334 114.742,347.817 111.102,348.009 108.417 C 348.416 102.735,348.494 101.190,348.500 98.667 C 348.504 97.154,348.582 95.429,348.674 94.833 C 348.767 94.237,348.915 93.188,349.004 92.500 C 349.192 91.040,349.535 89.229,349.823 88.167 C 350.372 86.144,350.542 85.544,350.698 85.083 C 350.791 84.808,350.908 84.396,350.958 84.167 C 351.008 83.938,351.150 83.602,351.274 83.421 C 351.398 83.240,351.500 82.958,351.500 82.794 C 351.500 82.630,351.573 82.365,351.662 82.206 C 351.752 82.047,352.022 81.429,352.264 80.833 C 352.747 79.641,354.505 75.966,354.655 75.833 C 354.707 75.787,354.898 75.450,355.080 75.083 C 355.382 74.473,355.964 73.536,356.167 73.333 C 356.287 73.213,356.650 72.625,356.783 72.333 C 356.846 72.196,356.977 71.998,357.074 71.893 C 357.171 71.788,357.769 70.982,358.403 70.101 C 359.037 69.221,359.618 68.500,359.695 68.500 C 359.771 68.500,359.833 68.431,359.833 68.347 C 359.833 67.893,366.060 61.667,366.514 61.667 C 366.598 61.667,366.667 61.604,366.667 61.528 C 366.667 61.451,367.387 60.870,368.268 60.236 C 369.149 59.602,369.968 58.990,370.089 58.875 C 370.210 58.760,370.345 58.667,370.388 58.667 C 370.431 58.667,370.868 58.396,371.358 58.065 C 371.849 57.734,372.400 57.395,372.583 57.312 C 372.767 57.229,373.142 57.018,373.417 56.843 C 374.146 56.379,378.098 54.432,379.167 54.010 C 379.671 53.812,380.233 53.587,380.417 53.511 C 380.792 53.356,381.794 52.983,382.667 52.674 C 382.988 52.560,383.512 52.412,383.833 52.345 C 384.154 52.278,384.679 52.141,385.000 52.041 C 388.167 51.055,392.907 50.333,396.221 50.333 L 398.464 50.333 398.732 49.663 C 398.879 49.295,399.000 48.795,399.000 48.552 C 399.000 48.309,399.109 47.280,399.243 46.264 C 400.463 36.978,400.087 5.857,398.698 1.125 L 398.417 0.167 396.583 0.192 C 395.575 0.206,393.287 0.307,391.500 0.416 M250.539 9.333 C 250.539 9.654,250.573 9.785,250.615 9.625 C 250.657 9.465,250.657 9.202,250.615 9.042 C 250.573 8.881,250.539 9.012,250.539 9.333 M250.709 11.917 C 250.711 12.283,250.745 12.414,250.785 12.206 C 250.824 11.999,250.823 11.699,250.781 11.540 C 250.739 11.380,250.707 11.550,250.709 11.917 M250.885 15.583 C 250.886 16.133,250.917 16.338,250.954 16.039 C 250.991 15.739,250.990 15.289,250.952 15.039 C 250.914 14.788,250.884 15.033,250.885 15.583 M193.357 17.006 C 192.840 17.436,193.073 17.431,193.621 17.000 C 193.854 16.817,193.979 16.669,193.897 16.672 C 193.816 16.675,193.573 16.825,193.357 17.006 M250.907 24.833 C 250.907 27.446,250.930 28.515,250.958 27.208 C 250.986 25.902,250.986 23.765,250.958 22.458 C 250.930 21.152,250.907 22.221,250.907 24.833 M180.242 27.537 C 179.880 27.925,179.771 28.093,180.000 27.912 C 180.716 27.347,181.219 26.833,181.057 26.833 C 180.971 26.833,180.605 27.150,180.242 27.537 M176.583 31.167 C 176.132 31.625,175.816 32.000,175.881 32.000 C 175.999 32.000,176.127 31.877,177.073 30.860 C 177.853 30.020,177.485 30.251,176.583 31.167 M250.885 34.750 C 250.886 35.300,250.917 35.505,250.954 35.205 C 250.991 34.906,250.990 34.456,250.952 34.205 C 250.914 33.955,250.884 34.200,250.885 34.750 M250.709 38.250 C 250.711 38.617,250.745 38.747,250.785 38.540 C 250.824 38.332,250.823 38.032,250.781 37.873 C 250.739 37.714,250.707 37.883,250.709 38.250 M250.539 40.833 C 250.539 41.154,250.573 41.285,250.615 41.125 C 250.657 40.965,250.657 40.702,250.615 40.542 C 250.573 40.381,250.539 40.512,250.539 40.833 M218.523 60.339 C 218.007 60.769,218.240 60.764,218.788 60.333 C 219.021 60.150,219.145 60.002,219.064 60.006 C 218.983 60.009,218.740 60.159,218.523 60.339 M213.538 64.712 C 212.784 65.470,212.167 66.145,212.167 66.212 C 212.167 66.280,212.771 65.734,213.510 65.001 C 214.248 64.267,214.923 63.667,215.010 63.667 C 215.096 63.667,215.167 63.592,215.167 63.500 C 215.167 63.152,214.869 63.374,213.538 64.712 M199.225 99.667 C 199.225 100.446,199.254 100.765,199.289 100.375 C 199.324 99.985,199.324 99.348,199.289 98.958 C 199.254 98.569,199.225 98.888,199.225 99.667 M49.879 99.500 C 49.879 99.912,49.911 100.081,49.951 99.875 C 49.991 99.669,49.991 99.331,49.951 99.125 C 49.911 98.919,49.879 99.087,49.879 99.500 M149.045 99.500 C 149.045 99.912,149.078 100.081,149.118 99.875 C 149.157 99.669,149.157 99.331,149.118 99.125 C 149.078 98.919,149.045 99.087,149.045 99.500 M209.167 129.500 C 209.457 129.867,209.732 130.167,209.778 130.167 C 209.824 130.167,209.624 129.867,209.333 129.500 C 209.043 129.133,208.768 128.833,208.722 128.833 C 208.676 128.833,208.876 129.133,209.167 129.500 M211.833 132.714 C 211.833 132.768,212.067 133.061,212.352 133.365 C 212.637 133.668,212.794 133.766,212.700 133.581 C 212.524 133.232,211.833 132.541,211.833 132.714 M214.833 135.822 C 214.833 135.907,215.077 136.145,215.375 136.350 L 215.917 136.723 215.427 136.195 C 214.899 135.625,214.833 135.584,214.833 135.822 M225.333 143.404 C 225.333 143.479,227.171 144.431,227.792 144.677 C 228.605 144.999,228.097 144.653,226.814 144.010 C 225.440 143.323,225.333 143.279,225.333 143.404 M175.002 166.395 C 175.001 166.474,175.300 166.839,175.667 167.206 C 176.530 168.069,176.531 167.894,175.669 166.966 C 175.303 166.572,175.003 166.315,175.002 166.395 M177.333 168.859 C 177.333 169.011,179.516 171.206,179.592 171.131 C 179.628 171.095,179.134 170.546,178.495 169.912 C 177.856 169.278,177.333 168.804,177.333 168.859 M29.500 170.385 C 29.500 170.414,29.744 170.658,30.042 170.927 L 30.583 171.417 30.094 170.875 C 29.638 170.370,29.500 170.257,29.500 170.385 M181.333 172.767 C 181.333 172.953,182.001 173.555,182.099 173.457 C 182.135 173.420,181.978 173.214,181.749 172.999 C 181.521 172.784,181.333 172.680,181.333 172.767 M198.000 185.241 C 198.000 185.287,198.225 185.441,198.500 185.583 C 198.775 185.726,199.000 185.804,199.000 185.759 C 199.000 185.713,198.775 185.559,198.500 185.417 C 198.225 185.274,198.000 185.196,198.000 185.241 M207.000 189.985 C 207.229 190.173,207.492 190.326,207.583 190.327 C 207.762 190.328,207.460 190.098,206.917 189.817 C 206.695 189.702,206.723 189.759,207.000 189.985 M246.788 199.120 C 247.084 199.157,247.609 199.158,247.955 199.122 C 248.300 199.086,248.058 199.055,247.417 199.055 C 246.775 199.054,246.492 199.083,246.788 199.120 " stroke="none" fill="#4484f3" fill-rule="evenodd"></path><path id="path1" d="M243.417 0.345 C 242.592 0.418,241.429 0.492,240.833 0.508 C 240.237 0.524,239.075 0.640,238.250 0.765 C 237.425 0.890,236.300 1.028,235.750 1.070 C 235.200 1.113,234.247 1.255,233.631 1.386 C 233.016 1.516,232.480 1.591,232.441 1.552 C 232.402 1.513,231.931 1.594,231.393 1.732 C 230.856 1.870,230.067 2.023,229.639 2.073 C 229.211 2.123,228.671 2.237,228.438 2.325 C 228.206 2.413,227.665 2.528,227.237 2.579 C 226.809 2.631,226.398 2.710,226.324 2.756 C 226.250 2.802,225.865 2.904,225.469 2.982 C 225.074 3.061,224.150 3.292,223.417 3.496 C 222.683 3.700,222.008 3.880,221.917 3.896 C 221.825 3.913,221.656 3.985,221.542 4.056 C 221.427 4.128,221.333 4.146,221.333 4.097 C 221.333 4.048,221.127 4.091,220.875 4.191 C 220.623 4.292,220.267 4.391,220.083 4.412 C 219.900 4.432,219.525 4.542,219.250 4.656 C 218.975 4.770,218.637 4.887,218.500 4.917 C 218.362 4.946,218.025 5.059,217.750 5.167 C 217.475 5.275,217.137 5.391,217.000 5.426 C 216.374 5.583,213.766 6.526,213.325 6.755 C 213.054 6.894,212.833 6.963,212.833 6.907 C 212.833 6.852,212.582 6.961,212.276 7.151 C 211.969 7.340,211.675 7.453,211.623 7.401 C 211.571 7.349,211.354 7.418,211.139 7.554 C 210.925 7.690,210.150 8.039,209.417 8.329 C 208.683 8.619,207.971 8.923,207.833 9.006 C 207.557 9.172,206.132 9.874,206.000 9.909 C 205.811 9.959,203.887 10.925,203.517 11.155 C 203.297 11.292,203.015 11.419,202.891 11.438 C 202.767 11.456,202.179 11.778,201.583 12.155 C 200.987 12.531,200.500 12.798,200.500 12.747 C 200.500 12.697,200.086 12.921,199.580 13.245 C 199.074 13.569,198.602 13.833,198.530 13.833 C 198.459 13.833,198.306 13.927,198.192 14.042 C 198.077 14.156,197.931 14.251,197.867 14.253 C 197.803 14.255,197.285 14.573,196.717 14.961 C 196.150 15.349,195.625 15.672,195.551 15.678 C 195.477 15.684,194.967 16.024,194.417 16.434 C 193.867 16.844,193.285 17.223,193.125 17.276 C 192.965 17.329,192.833 17.438,192.833 17.519 C 192.833 17.600,192.747 17.667,192.642 17.667 C 192.537 17.667,192.131 17.929,191.739 18.250 C 191.348 18.571,190.946 18.833,190.847 18.833 C 190.748 18.833,190.667 18.892,190.667 18.964 C 190.667 19.036,190.423 19.236,190.125 19.409 C 189.827 19.582,189.522 19.825,189.448 19.949 C 189.374 20.072,189.246 20.132,189.165 20.082 C 189.083 20.032,188.932 20.149,188.828 20.343 C 188.724 20.537,188.602 20.658,188.556 20.611 C 188.510 20.565,188.345 20.653,188.189 20.806 C 188.033 20.958,187.658 21.271,187.355 21.500 C 187.052 21.729,186.717 21.992,186.610 22.083 C 186.504 22.175,186.041 22.544,185.583 22.903 C 185.125 23.262,184.591 23.712,184.397 23.903 C 184.203 24.094,183.606 24.625,183.069 25.083 C 180.296 27.455,176.218 31.542,174.116 34.059 C 160.925 49.851,154.017 64.393,150.675 83.400 C 145.544 112.581,155.012 144.493,175.388 166.704 C 176.803 168.247,180.658 172.167,180.760 172.167 C 180.806 172.167,181.211 172.523,181.660 172.958 C 182.110 173.394,182.876 174.088,183.364 174.500 C 183.851 174.912,184.449 175.456,184.692 175.708 C 184.935 175.960,185.185 176.167,185.249 176.167 C 185.350 176.167,185.750 176.500,186.659 177.346 C 186.815 177.491,187.068 177.657,187.221 177.716 C 187.374 177.775,187.500 177.905,187.500 178.005 C 187.500 178.105,187.576 178.140,187.668 178.083 C 187.760 178.026,187.881 178.096,187.936 178.239 C 187.991 178.383,188.135 178.500,188.257 178.500 C 188.378 178.500,188.525 178.651,188.584 178.836 C 188.643 179.020,188.756 179.131,188.835 179.082 C 188.915 179.033,189.040 179.090,189.115 179.210 C 189.189 179.329,189.718 179.724,190.290 180.088 C 190.862 180.452,191.331 180.806,191.332 180.875 C 191.333 180.944,191.412 181.000,191.507 181.000 C 191.603 181.000,192.107 181.319,192.628 181.708 C 193.671 182.488,194.567 183.070,195.090 183.310 C 195.277 183.395,195.530 183.586,195.652 183.733 C 195.774 183.880,195.948 184.000,196.038 184.000 C 196.128 184.000,196.537 184.227,196.948 184.504 C 197.358 184.781,197.988 185.157,198.347 185.340 C 198.706 185.524,199.000 185.751,199.000 185.847 C 199.000 185.942,199.056 185.985,199.125 185.943 C 199.194 185.901,199.550 186.044,199.917 186.262 C 201.012 186.914,201.909 187.401,202.028 187.409 C 202.089 187.413,202.193 187.471,202.260 187.538 C 202.378 187.656,206.500 189.715,206.667 189.739 C 206.713 189.746,207.275 190.001,207.917 190.305 C 208.558 190.610,209.308 190.956,209.583 191.074 C 209.858 191.193,210.308 191.387,210.583 191.506 C 210.858 191.625,211.158 191.742,211.250 191.766 C 211.737 191.895,212.596 192.268,212.685 192.389 C 212.741 192.466,212.838 192.514,212.901 192.497 C 213.015 192.465,213.797 192.735,214.417 193.020 C 214.600 193.105,214.911 193.204,215.109 193.241 C 215.306 193.278,215.700 193.428,215.984 193.575 C 216.268 193.722,216.500 193.805,216.500 193.760 C 216.500 193.715,216.838 193.823,217.250 194.000 C 217.662 194.177,218.000 194.286,218.000 194.242 C 218.000 194.198,218.256 194.269,218.570 194.400 C 218.883 194.531,219.183 194.595,219.236 194.541 C 219.290 194.488,219.333 194.535,219.333 194.646 C 219.333 194.757,219.427 194.829,219.542 194.807 C 219.656 194.784,220.050 194.871,220.417 194.999 C 220.783 195.127,221.158 195.239,221.250 195.247 C 221.429 195.263,222.550 195.574,223.500 195.870 C 223.821 195.971,224.271 196.075,224.500 196.102 C 224.729 196.129,225.247 196.268,225.651 196.411 C 226.055 196.553,226.418 196.638,226.457 196.598 C 226.497 196.559,226.901 196.637,227.356 196.772 C 227.811 196.907,228.424 197.054,228.717 197.099 C 229.750 197.255,229.923 197.290,230.642 197.488 C 231.041 197.598,231.402 197.654,231.444 197.612 C 231.486 197.569,231.985 197.644,232.552 197.779 C 233.119 197.913,233.996 198.057,234.500 198.099 C 235.004 198.140,235.867 198.254,236.417 198.353 C 236.967 198.452,237.904 198.563,238.500 198.599 C 239.096 198.636,240.333 198.752,241.250 198.858 C 242.167 198.964,244.323 199.058,246.042 199.067 L 249.168 199.084 249.126 174.258 L 249.083 149.431 247.500 149.382 C 246.629 149.355,245.242 149.250,244.417 149.149 C 243.592 149.048,242.542 148.935,242.083 148.898 C 241.625 148.860,240.725 148.715,240.083 148.576 C 239.442 148.436,238.579 148.247,238.167 148.157 C 237.754 148.066,237.192 147.953,236.917 147.906 C 236.642 147.859,236.117 147.718,235.750 147.593 C 235.065 147.360,233.845 147.020,233.627 147.001 C 233.560 146.995,233.166 146.845,232.752 146.668 C 232.338 146.490,232.000 146.378,232.000 146.418 C 232.000 146.459,231.456 146.244,230.792 145.941 C 230.127 145.638,229.529 145.374,229.462 145.354 C 228.586 145.092,225.702 143.695,225.042 143.212 C 224.744 142.995,224.500 142.871,224.500 142.937 C 224.500 143.004,224.313 142.882,224.083 142.667 C 223.854 142.451,223.667 142.337,223.667 142.413 C 223.667 142.489,223.535 142.445,223.375 142.316 C 223.215 142.186,222.821 141.936,222.500 141.761 C 222.179 141.585,221.879 141.396,221.833 141.340 C 221.787 141.284,221.094 140.796,220.292 140.256 C 219.490 139.715,218.833 139.212,218.833 139.137 C 218.833 139.061,218.759 139.000,218.668 139.000 C 218.488 139.000,217.816 138.470,217.241 137.875 C 217.041 137.669,216.820 137.500,216.749 137.500 C 216.604 137.500,216.351 137.262,213.750 134.672 C 211.331 132.264,208.410 128.833,208.778 128.833 C 208.849 128.833,208.741 128.717,208.537 128.574 C 208.333 128.431,208.167 128.206,208.167 128.074 C 208.167 127.942,208.105 127.833,208.031 127.833 C 207.956 127.833,207.718 127.515,207.501 127.125 C 207.285 126.735,207.063 126.379,207.009 126.333 C 206.815 126.172,206.260 125.249,206.291 125.141 C 206.308 125.081,206.213 124.941,206.078 124.829 C 205.943 124.717,205.833 124.528,205.833 124.408 C 205.833 124.288,205.734 124.091,205.613 123.970 C 205.337 123.694,203.500 119.988,203.500 119.707 C 203.500 119.593,203.433 119.500,203.351 119.500 C 203.231 119.500,202.987 118.862,202.968 118.500 C 202.966 118.454,202.811 118.117,202.624 117.750 C 202.437 117.383,202.286 117.046,202.289 117.000 C 202.291 116.954,202.221 116.729,202.132 116.500 C 202.043 116.271,201.946 115.971,201.915 115.833 C 201.885 115.696,201.741 115.302,201.595 114.958 C 201.448 114.615,201.366 114.333,201.412 114.333 C 201.458 114.333,201.351 113.967,201.174 113.518 C 200.997 113.070,200.887 112.669,200.928 112.628 C 200.970 112.586,200.887 112.222,200.744 111.818 C 200.601 111.414,200.458 110.896,200.426 110.667 C 200.394 110.438,200.256 109.786,200.118 109.219 C 199.980 108.652,199.896 108.159,199.932 108.124 C 199.967 108.089,199.884 107.541,199.748 106.905 C 199.159 104.153,199.111 95.882,199.666 93.000 C 199.763 92.496,199.878 91.716,199.922 91.266 C 199.965 90.817,200.083 90.143,200.184 89.768 C 200.285 89.393,200.393 88.898,200.423 88.668 C 200.454 88.438,200.597 87.920,200.741 87.516 C 200.886 87.112,200.968 86.746,200.925 86.703 C 200.882 86.660,200.957 86.360,201.092 86.037 C 201.227 85.714,201.377 85.227,201.425 84.955 C 201.472 84.683,201.622 84.248,201.756 83.989 C 201.890 83.729,202.000 83.430,202.000 83.325 C 202.000 83.220,202.104 82.897,202.230 82.609 C 202.626 81.707,202.870 81.016,202.811 80.965 C 202.780 80.939,202.917 80.654,203.115 80.333 C 203.313 80.012,203.483 79.695,203.493 79.627 C 203.502 79.560,203.656 79.165,203.833 78.750 C 204.011 78.335,204.167 77.940,204.180 77.873 C 204.193 77.805,204.329 77.563,204.482 77.333 C 204.636 77.104,204.932 76.579,205.140 76.167 C 205.348 75.754,205.663 75.192,205.841 74.917 C 206.018 74.642,206.215 74.304,206.279 74.167 C 206.451 73.794,207.059 72.934,207.250 72.794 C 207.361 72.713,207.361 72.670,207.250 72.667 C 207.154 72.664,207.162 72.609,207.268 72.539 C 207.370 72.472,207.578 72.173,207.731 71.875 C 207.884 71.577,208.082 71.333,208.171 71.333 C 208.260 71.333,208.318 71.277,208.298 71.208 C 208.251 71.039,209.363 69.500,209.532 69.500 C 209.606 69.500,209.667 69.385,209.667 69.245 C 209.667 69.104,209.779 68.946,209.917 68.894 C 210.054 68.841,210.167 68.720,210.167 68.624 C 210.167 68.528,210.429 68.195,210.750 67.884 C 211.071 67.572,211.333 67.251,211.333 67.171 C 211.333 67.090,211.521 66.877,211.750 66.696 C 211.979 66.516,212.167 66.300,212.167 66.216 C 212.167 66.030,215.350 62.883,215.420 63.000 C 215.447 63.046,215.632 62.877,215.830 62.625 C 216.029 62.373,216.251 62.167,216.325 62.167 C 216.399 62.167,216.763 61.885,217.135 61.542 C 217.973 60.765,218.067 60.690,219.179 59.898 C 219.676 59.544,220.228 59.123,220.404 58.962 C 220.581 58.802,220.862 58.627,221.029 58.574 C 221.197 58.521,221.333 58.416,221.333 58.342 C 221.333 58.267,221.465 58.161,221.625 58.107 C 221.785 58.052,222.517 57.628,223.250 57.163 C 224.609 56.302,228.511 54.331,230.167 53.668 C 231.830 53.002,233.797 52.294,233.870 52.335 C 233.896 52.350,234.302 52.209,234.773 52.024 C 235.245 51.838,235.664 51.720,235.706 51.762 C 235.748 51.804,236.043 51.729,236.362 51.595 C 236.682 51.462,237.237 51.317,237.596 51.273 C 237.956 51.229,238.448 51.117,238.691 51.024 C 238.933 50.931,239.553 50.816,240.069 50.768 C 240.585 50.721,241.074 50.640,241.156 50.590 C 241.380 50.451,246.247 50.005,247.583 50.000 C 249.296 49.993,249.443 49.925,249.755 48.986 C 249.903 48.540,249.989 48.116,249.945 48.045 C 249.902 47.975,249.972 47.317,250.102 46.583 C 250.231 45.850,250.373 44.425,250.418 43.417 C 250.462 42.408,250.584 40.383,250.688 38.917 C 250.938 35.414,250.935 14.823,250.684 11.250 C 250.581 9.783,250.466 7.833,250.427 6.917 C 250.389 6.000,250.277 4.752,250.179 4.144 C 250.080 3.535,249.962 2.641,249.916 2.158 C 249.870 1.674,249.697 1.047,249.532 0.764 L 249.232 0.250 247.074 0.231 C 245.888 0.220,244.242 0.271,243.417 0.345 " stroke="none" fill="#34ac54" fill-rule="evenodd"></path><path id="path2" d="M92.500 0.180 C 91.813 0.263,90.388 0.402,89.333 0.490 C 88.279 0.579,86.892 0.734,86.250 0.836 C 85.608 0.938,84.333 1.135,83.417 1.275 C 82.500 1.414,81.225 1.636,80.583 1.767 C 78.140 2.266,76.900 2.543,76.417 2.697 C 76.142 2.785,75.579 2.920,75.167 2.998 C 74.754 3.076,73.854 3.301,73.167 3.497 C 72.479 3.694,71.654 3.930,71.333 4.022 C 71.012 4.114,70.487 4.246,70.167 4.316 C 69.846 4.386,69.349 4.566,69.063 4.715 C 68.777 4.865,68.503 4.947,68.454 4.898 C 68.405 4.850,68.058 4.967,67.683 5.158 C 67.307 5.350,67.000 5.472,67.000 5.429 C 67.000 5.386,66.494 5.540,65.875 5.772 C 65.256 6.003,64.509 6.264,64.214 6.352 C 63.920 6.440,63.634 6.585,63.580 6.673 C 63.525 6.761,63.365 6.833,63.224 6.833 C 63.083 6.833,62.693 6.953,62.359 7.100 C 62.024 7.247,61.600 7.428,61.417 7.502 C 60.953 7.689,59.517 8.309,58.917 8.580 C 58.020 8.986,51.923 12.004,51.667 12.169 C 51.529 12.258,50.592 12.791,49.583 13.353 C 48.575 13.916,47.725 14.442,47.694 14.521 C 47.664 14.601,47.547 14.667,47.434 14.667 C 47.322 14.667,47.067 14.818,46.868 15.003 C 46.669 15.189,46.469 15.341,46.423 15.343 C 46.236 15.348,45.335 15.926,45.334 16.042 C 45.334 16.110,45.255 16.167,45.160 16.167 C 44.963 16.167,43.945 16.852,43.861 17.042 C 43.831 17.110,43.732 17.167,43.643 17.167 C 43.504 17.167,42.358 17.958,41.715 18.498 C 41.605 18.591,41.470 18.667,41.417 18.667 C 41.316 18.667,41.033 18.882,40.502 19.361 C 40.333 19.514,40.152 19.597,40.101 19.546 C 40.050 19.494,39.961 19.576,39.903 19.726 C 39.845 19.877,39.701 20.000,39.583 20.000 C 39.465 20.000,39.326 20.113,39.273 20.250 C 39.220 20.388,39.069 20.500,38.936 20.500 C 38.803 20.500,38.669 20.559,38.639 20.632 C 38.608 20.704,37.869 21.330,36.995 22.022 C 36.122 22.714,35.210 23.461,34.968 23.682 C 34.726 23.903,34.017 24.533,33.392 25.083 C 32.767 25.633,31.769 26.552,31.173 27.125 C 30.578 27.698,30.028 28.167,29.952 28.167 C 29.876 28.167,29.860 28.242,29.917 28.333 C 29.973 28.425,29.946 28.500,29.856 28.500 C 29.767 28.500,29.406 28.792,29.055 29.150 C 27.531 30.701,26.010 32.326,25.163 33.308 C 24.661 33.890,24.094 34.527,23.904 34.725 C 23.714 34.922,23.189 35.530,22.737 36.076 C 22.286 36.622,21.818 37.184,21.697 37.326 C 21.576 37.467,20.920 38.333,20.239 39.250 C 19.559 40.167,18.926 41.007,18.834 41.118 C 18.742 41.229,18.667 41.397,18.667 41.493 C 18.667 41.589,18.608 41.667,18.536 41.667 C 18.464 41.667,18.274 41.889,18.113 42.161 C 17.953 42.432,17.728 42.751,17.613 42.869 C 17.498 42.987,17.223 43.383,17.003 43.750 C 16.782 44.117,16.556 44.454,16.500 44.500 C 16.444 44.546,16.218 44.883,15.997 45.250 C 15.777 45.617,15.504 46.011,15.392 46.126 C 15.280 46.241,15.141 46.485,15.083 46.668 C 15.025 46.850,14.908 47.000,14.822 47.000 C 14.737 47.000,14.667 47.070,14.667 47.155 C 14.667 47.304,13.519 49.330,13.338 49.500 C 13.290 49.546,13.053 49.958,12.812 50.417 C 12.571 50.875,12.090 51.775,11.744 52.417 C 10.718 54.317,9.072 57.687,8.366 59.333 C 8.189 59.746,7.891 60.421,7.704 60.833 C 7.516 61.246,7.124 62.221,6.833 63.000 C 6.542 63.779,6.190 64.628,6.052 64.887 C 5.914 65.145,5.846 65.401,5.901 65.457 C 5.956 65.512,5.901 65.713,5.779 65.903 C 5.569 66.232,5.027 67.768,4.912 68.359 C 4.883 68.510,4.741 68.863,4.596 69.142 C 4.452 69.422,4.333 69.800,4.333 69.984 C 4.333 70.167,4.268 70.490,4.188 70.700 C 4.108 70.911,3.917 71.533,3.763 72.083 C 3.609 72.633,3.374 73.431,3.241 73.856 C 3.109 74.281,3.000 74.773,3.000 74.951 C 3.000 75.129,2.894 75.606,2.764 76.012 C 2.454 76.983,1.732 80.415,1.277 83.083 C -0.283 92.226,-0.475 103.041,0.757 112.500 C 1.093 115.081,1.476 117.381,1.763 118.539 C 1.893 119.065,2.000 119.658,2.000 119.858 C 2.000 120.057,2.108 120.602,2.239 121.069 C 2.371 121.535,2.605 122.517,2.759 123.250 C 2.914 123.983,3.134 124.846,3.249 125.167 C 3.364 125.487,3.545 126.087,3.652 126.500 C 3.759 126.912,3.984 127.781,4.152 128.430 C 4.320 129.078,4.547 129.777,4.657 129.982 C 4.767 130.187,4.885 130.503,4.920 130.685 C 5.042 131.318,5.582 132.894,6.125 134.203 C 6.285 134.590,6.418 134.946,6.419 134.995 C 6.421 135.097,6.772 136.023,7.084 136.750 C 7.202 137.025,7.377 137.438,7.473 137.667 C 7.995 138.908,8.416 139.863,8.869 140.833 C 9.533 142.257,11.432 146.071,11.897 146.917 C 12.099 147.283,12.486 147.996,12.757 148.500 C 13.028 149.004,13.426 149.679,13.642 150.000 C 13.857 150.321,14.102 150.733,14.186 150.917 C 14.270 151.100,14.486 151.475,14.667 151.750 C 14.848 152.025,15.084 152.419,15.192 152.625 C 15.299 152.831,15.450 153.000,15.527 153.000 C 15.604 153.000,15.667 153.071,15.667 153.158 C 15.667 153.245,15.892 153.650,16.167 154.057 C 16.442 154.465,16.667 154.881,16.667 154.983 C 16.667 155.084,16.734 155.167,16.817 155.167 C 16.899 155.167,17.123 155.430,17.313 155.753 C 17.503 156.075,17.739 156.431,17.838 156.544 C 17.936 156.657,18.391 157.275,18.849 157.917 C 19.306 158.558,19.921 159.378,20.215 159.738 C 20.509 160.098,21.050 160.813,21.417 161.327 C 21.783 161.841,22.233 162.414,22.417 162.600 C 22.600 162.786,23.125 163.377,23.583 163.913 C 24.042 164.449,24.548 165.025,24.708 165.194 C 24.869 165.362,25.000 165.535,25.000 165.578 C 25.000 165.807,29.019 169.882,31.746 172.417 C 32.732 173.333,33.661 174.199,33.811 174.340 C 33.961 174.481,34.571 175.006,35.167 175.507 C 35.762 176.007,36.346 176.508,36.464 176.619 C 36.581 176.730,37.013 177.061,37.422 177.355 C 37.832 177.649,38.167 177.952,38.167 178.028 C 38.167 178.104,38.271 178.167,38.399 178.167 C 38.527 178.167,38.676 178.284,38.731 178.427 C 38.786 178.571,38.903 178.643,38.990 178.589 C 39.078 178.535,39.235 178.649,39.338 178.843 C 39.442 179.037,39.565 179.158,39.611 179.111 C 39.657 179.065,39.833 179.153,40.002 179.306 C 40.589 179.835,40.820 180.000,40.979 180.000 C 41.067 180.000,41.164 180.059,41.194 180.131 C 41.225 180.203,41.887 180.707,42.667 181.250 C 43.446 181.793,44.108 182.297,44.139 182.369 C 44.169 182.441,44.259 182.500,44.339 182.500 C 44.418 182.500,44.806 182.714,45.200 182.975 C 47.616 184.577,49.454 185.700,50.163 186.008 C 50.391 186.107,50.616 186.239,50.663 186.302 C 50.743 186.406,51.189 186.658,52.333 187.245 C 52.563 187.362,53.050 187.612,53.417 187.800 C 55.970 189.107,58.633 190.369,60.208 191.018 C 61.530 191.562,62.550 192.006,62.873 192.179 C 63.032 192.264,63.298 192.333,63.464 192.333 C 63.631 192.333,63.838 192.396,63.925 192.473 C 64.209 192.723,68.257 194.148,68.710 194.157 C 68.780 194.159,69.065 194.278,69.344 194.422 C 69.624 194.567,70.054 194.712,70.301 194.744 C 70.548 194.777,70.975 194.891,71.250 194.998 C 71.932 195.263,76.739 196.509,77.667 196.661 C 78.079 196.729,78.754 196.866,79.167 196.965 C 88.790 199.280,104.354 199.696,114.447 197.908 C 115.196 197.775,115.973 197.667,116.173 197.667 C 116.372 197.667,117.071 197.550,117.726 197.407 C 118.381 197.264,119.479 197.032,120.167 196.891 C 121.999 196.517,123.508 196.143,126.500 195.322 C 127.188 195.134,128.012 194.922,128.333 194.852 C 128.654 194.782,129.095 194.629,129.312 194.512 C 129.530 194.395,129.868 194.275,130.062 194.245 C 130.603 194.163,131.906 193.724,132.462 193.436 C 132.735 193.295,133.002 193.225,133.057 193.279 C 133.112 193.334,133.343 193.256,133.572 193.106 C 133.801 192.956,134.122 192.831,134.286 192.828 C 134.449 192.825,134.729 192.713,134.907 192.578 C 135.085 192.443,135.336 192.333,135.465 192.333 C 135.683 192.333,135.929 192.239,137.500 191.554 C 137.821 191.415,138.308 191.206,138.583 191.090 C 138.858 190.975,139.271 190.800,139.500 190.701 C 139.729 190.603,141.320 189.843,143.036 189.011 C 144.751 188.180,146.221 187.500,146.301 187.500 C 146.382 187.500,146.585 187.350,146.751 187.166 C 146.917 186.982,147.085 186.863,147.124 186.902 C 147.213 186.991,150.373 185.161,150.539 184.925 C 150.606 184.829,150.663 184.818,150.664 184.901 C 150.666 184.984,150.798 184.939,150.958 184.801 C 151.119 184.663,151.362 184.501,151.500 184.440 C 151.637 184.379,151.975 184.181,152.250 184.000 C 152.525 183.819,152.919 183.582,153.125 183.475 C 153.331 183.368,153.500 183.234,153.500 183.178 C 153.500 183.122,153.781 182.928,154.125 182.748 C 154.469 182.567,154.787 182.378,154.833 182.327 C 154.879 182.276,155.554 181.790,156.333 181.248 C 157.112 180.706,157.775 180.203,157.806 180.131 C 157.836 180.059,157.967 180.000,158.097 180.000 C 158.227 180.000,158.333 179.925,158.333 179.833 C 158.333 179.742,158.431 179.667,158.551 179.667 C 158.670 179.667,159.043 179.415,159.380 179.107 C 159.716 178.799,160.029 178.584,160.075 178.630 C 160.121 178.677,160.206 178.591,160.264 178.441 C 160.322 178.290,160.428 178.167,160.501 178.167 C 160.627 178.167,161.369 177.578,162.025 176.958 C 162.194 176.798,162.408 176.667,162.500 176.667 C 162.592 176.667,162.667 176.607,162.667 176.534 C 162.667 176.461,163.023 176.127,163.458 175.791 C 165.013 174.593,167.854 171.955,170.398 169.348 C 173.236 166.440,173.383 166.284,173.797 165.758 L 174.167 165.288 173.279 164.269 C 155.191 143.520,146.655 114.965,150.175 86.984 C 152.585 67.825,161.017 49.023,173.648 34.644 L 174.326 33.872 173.627 33.061 C 171.961 31.127,168.244 27.407,166.250 25.677 C 165.700 25.200,165.225 24.740,165.194 24.655 C 165.164 24.570,165.066 24.500,164.977 24.500 C 164.888 24.500,164.613 24.288,164.366 24.029 C 164.119 23.771,163.542 23.264,163.084 22.904 C 162.625 22.544,162.145 22.150,162.016 22.028 C 161.888 21.906,161.363 21.499,160.850 21.124 C 160.336 20.748,159.857 20.342,159.783 20.220 C 159.710 20.099,159.549 20.000,159.426 20.000 C 159.303 20.000,159.155 19.877,159.097 19.726 C 159.039 19.576,158.950 19.494,158.899 19.546 C 158.812 19.632,158.446 19.384,157.910 18.875 C 157.789 18.760,157.616 18.667,157.526 18.667 C 157.435 18.667,157.336 18.610,157.306 18.542 C 157.275 18.473,156.987 18.231,156.667 18.003 C 155.713 17.328,152.467 15.167,152.406 15.167 C 152.375 15.167,152.017 14.942,151.609 14.667 C 151.202 14.392,150.785 14.167,150.684 14.167 C 150.583 14.167,150.500 14.106,150.500 14.033 C 150.500 13.918,149.399 13.291,147.544 12.349 C 147.291 12.221,147.046 12.064,147.000 12.002 C 146.954 11.940,146.317 11.603,145.583 11.254 C 144.850 10.905,144.212 10.567,144.167 10.502 C 144.121 10.437,143.877 10.334,143.625 10.272 C 143.373 10.211,143.167 10.087,143.167 9.997 C 143.167 9.907,143.060 9.833,142.930 9.833 C 142.800 9.833,142.332 9.654,141.889 9.434 C 141.446 9.215,140.708 8.874,140.250 8.678 C 139.792 8.481,139.212 8.207,138.962 8.069 C 138.713 7.932,138.488 7.835,138.462 7.854 C 138.418 7.887,137.615 7.555,136.583 7.077 C 136.308 6.949,135.876 6.796,135.623 6.737 C 135.370 6.678,135.122 6.563,135.072 6.482 C 135.022 6.400,134.832 6.333,134.651 6.333 C 134.470 6.333,134.140 6.214,133.918 6.069 C 133.696 5.924,133.450 5.845,133.371 5.894 C 133.291 5.943,132.986 5.837,132.693 5.658 C 132.399 5.479,132.050 5.333,131.918 5.333 C 131.786 5.333,131.432 5.228,131.131 5.100 C 130.830 4.971,130.133 4.736,129.583 4.576 C 129.033 4.417,128.396 4.228,128.167 4.157 C 127.784 4.037,127.294 3.900,124.917 3.248 C 123.557 2.875,122.118 2.522,121.583 2.431 C 121.308 2.385,120.183 2.165,119.083 1.943 C 115.494 1.220,112.814 0.823,108.083 0.313 C 105.845 0.072,94.230 -0.027,92.500 0.180 M104.000 50.089 C 105.421 50.232,107.082 50.457,107.691 50.591 C 108.299 50.724,108.968 50.833,109.176 50.833 C 109.384 50.833,109.936 50.941,110.402 51.072 C 110.868 51.204,111.737 51.437,112.333 51.591 C 114.186 52.070,114.912 52.304,117.083 53.122 C 118.240 53.558,118.388 53.620,119.708 54.225 C 120.419 54.551,121.000 54.778,121.000 54.730 C 121.000 54.683,121.207 54.780,121.459 54.947 C 122.110 55.377,122.431 55.560,123.750 56.256 C 124.392 56.595,125.029 56.960,125.167 57.069 C 125.304 57.178,125.698 57.411,126.042 57.588 C 126.385 57.765,126.667 57.967,126.667 58.038 C 126.667 58.109,126.750 58.167,126.851 58.167 C 126.952 58.167,127.319 58.392,127.667 58.667 C 128.014 58.942,128.349 59.167,128.411 59.167 C 128.473 59.167,128.623 59.260,128.743 59.375 C 129.107 59.720,129.666 60.167,129.735 60.167 C 129.825 60.167,130.780 60.979,131.444 61.619 C 131.750 61.914,132.000 62.110,132.000 62.053 C 132.000 61.997,132.179 62.131,132.398 62.351 C 132.617 62.570,133.592 63.529,134.565 64.480 C 135.537 65.432,136.333 66.232,136.333 66.260 C 136.333 66.287,136.604 66.596,136.935 66.946 C 137.266 67.297,137.766 67.902,138.047 68.292 C 138.327 68.681,138.623 69.000,138.705 69.000 C 138.786 69.000,138.806 69.076,138.749 69.168 C 138.692 69.260,138.762 69.381,138.905 69.435 C 139.048 69.490,139.329 69.827,139.530 70.184 C 139.731 70.541,139.956 70.833,140.031 70.833 C 140.105 70.833,140.167 70.911,140.167 71.007 C 140.167 71.103,140.246 71.271,140.342 71.382 C 140.439 71.493,140.829 72.071,141.209 72.667 C 141.589 73.262,141.941 73.787,141.992 73.833 C 142.161 73.988,144.471 78.477,144.735 79.167 C 144.788 79.304,144.900 79.529,144.985 79.667 C 145.235 80.074,145.667 81.119,145.667 81.319 C 145.667 81.421,145.734 81.635,145.816 81.794 C 145.958 82.069,146.201 82.705,146.659 84.000 C 146.772 84.321,146.941 84.921,147.033 85.333 C 147.126 85.746,147.269 86.155,147.351 86.242 C 147.433 86.329,147.500 86.547,147.500 86.727 C 147.500 86.907,147.607 87.436,147.738 87.902 C 148.072 89.092,148.515 91.209,148.529 91.684 C 148.536 91.904,148.649 92.702,148.781 93.458 C 149.136 95.499,149.124 103.561,148.763 105.615 C 148.614 106.457,148.512 107.207,148.536 107.282 C 148.649 107.640,147.348 112.981,146.727 114.709 C 146.603 115.053,146.508 115.374,146.514 115.422 C 146.527 115.519,145.763 117.586,145.377 118.500 C 144.994 119.406,144.630 120.226,144.489 120.500 C 144.418 120.638,143.961 121.537,143.473 122.500 C 142.985 123.462,142.492 124.349,142.376 124.470 C 142.261 124.591,142.167 124.759,142.167 124.844 C 142.167 124.928,141.832 125.485,141.424 126.082 C 141.015 126.678,140.727 127.167,140.783 127.167 C 140.839 127.167,140.723 127.307,140.526 127.478 C 140.328 127.649,140.167 127.868,140.167 127.964 C 140.167 128.060,140.110 128.164,140.042 128.194 C 139.973 128.225,139.623 128.681,139.264 129.208 C 138.905 129.735,138.549 130.167,138.472 130.167 C 138.396 130.167,138.333 130.279,138.333 130.417 C 138.333 130.554,138.256 130.667,138.161 130.667 C 138.067 130.667,137.948 130.775,137.897 130.907 C 137.749 131.295,136.553 132.604,134.500 134.629 C 132.357 136.741,132.283 136.810,131.000 137.844 C 130.496 138.251,129.933 138.721,129.750 138.889 C 129.567 139.057,129.210 139.303,128.958 139.435 C 128.706 139.567,128.500 139.740,128.500 139.818 C 128.500 139.897,128.369 140.006,128.208 140.062 C 127.947 140.152,126.021 141.426,125.571 141.807 C 125.472 141.891,125.228 142.011,125.029 142.074 C 124.830 142.137,124.667 142.264,124.667 142.354 C 124.667 142.445,124.598 142.477,124.513 142.425 C 124.429 142.373,124.260 142.428,124.138 142.547 C 123.732 142.943,118.911 145.333,118.517 145.333 C 118.431 145.333,118.148 145.440,117.889 145.570 C 117.107 145.962,115.202 146.659,113.833 147.053 C 111.557 147.709,109.660 148.165,108.500 148.335 C 107.996 148.409,107.096 148.548,106.500 148.644 C 102.364 149.312,96.685 149.311,92.500 148.642 C 91.904 148.547,91.004 148.409,90.500 148.335 C 88.221 148.001,81.429 145.982,80.925 145.488 C 80.838 145.403,80.668 145.333,80.546 145.333 C 80.325 145.333,78.729 144.621,77.333 143.899 C 76.921 143.686,76.227 143.345,75.792 143.141 C 75.356 142.937,75.000 142.721,75.000 142.661 C 75.000 142.600,74.681 142.409,74.292 142.236 C 73.902 142.063,73.508 141.861,73.417 141.788 C 73.325 141.715,72.762 141.325,72.167 140.921 C 70.063 139.494,69.349 138.992,69.134 138.788 C 69.014 138.675,68.504 138.248,68.000 137.841 C 66.329 136.489,62.976 133.228,61.917 131.923 C 61.550 131.471,61.119 130.966,60.958 130.801 C 60.798 130.635,60.667 130.425,60.667 130.333 C 60.667 130.242,60.604 130.167,60.528 130.167 C 60.451 130.167,60.095 129.735,59.736 129.208 C 59.377 128.681,59.027 128.225,58.958 128.194 C 58.890 128.164,58.833 128.039,58.833 127.917 C 58.833 127.794,58.777 127.669,58.707 127.639 C 58.532 127.562,56.833 125.025,56.833 124.840 C 56.833 124.758,56.739 124.591,56.624 124.470 C 56.508 124.349,56.007 123.440,55.510 122.449 C 55.013 121.459,54.545 120.611,54.470 120.565 C 54.395 120.518,54.333 120.368,54.333 120.230 C 54.333 120.092,54.158 119.590,53.943 119.115 C 53.597 118.350,53.384 117.831,52.812 116.360 C 51.808 113.780,50.859 109.873,50.244 105.789 C 49.865 103.275,49.865 95.725,50.244 93.211 C 50.573 91.025,50.967 88.925,51.176 88.241 C 51.261 87.961,51.403 87.399,51.491 86.991 C 51.809 85.513,52.586 83.145,53.273 81.558 C 53.398 81.269,53.502 80.932,53.505 80.808 C 53.508 80.684,53.618 80.441,53.750 80.267 C 53.882 80.093,53.955 79.895,53.913 79.828 C 53.871 79.760,53.949 79.612,54.085 79.498 C 54.222 79.385,54.333 79.197,54.333 79.080 C 54.333 78.826,56.767 74.053,57.008 73.833 C 57.059 73.787,57.411 73.262,57.791 72.667 C 58.171 72.071,58.561 71.493,58.658 71.382 C 58.754 71.271,58.833 71.135,58.833 71.078 C 58.833 71.022,58.927 70.877,59.042 70.757 C 59.501 70.273,59.833 69.822,59.833 69.683 C 59.833 69.602,59.957 69.488,60.107 69.431 C 60.258 69.373,60.341 69.285,60.292 69.236 C 60.242 69.187,60.363 68.971,60.559 68.756 C 61.204 68.051,61.833 67.293,61.833 67.221 C 61.833 67.182,62.021 66.977,62.250 66.765 C 62.479 66.552,62.667 66.339,62.667 66.290 C 62.667 66.039,67.216 61.774,68.667 60.665 C 69.079 60.350,69.454 60.052,69.500 60.003 C 69.672 59.820,72.011 58.167,72.098 58.167 C 72.148 58.167,72.428 57.998,72.719 57.791 C 73.392 57.315,73.829 57.043,74.250 56.835 C 74.433 56.745,75.033 56.409,75.583 56.089 C 76.597 55.499,78.004 54.797,79.667 54.051 C 80.670 53.601,80.923 53.496,81.917 53.122 C 84.303 52.223,85.331 51.892,86.210 51.738 C 86.555 51.678,86.878 51.562,86.928 51.481 C 86.979 51.400,87.215 51.333,87.454 51.333 C 87.692 51.333,88.269 51.227,88.735 51.096 C 92.537 50.032,99.111 49.598,104.000 50.089 " stroke="none" fill="#eb4434" fill-rule="evenodd"></path></g></svg>